<mxfile host="app.diagrams.net" modified="2021-03-19T06:59:24.059Z" agent="5.0 (Windows NT 10.0; Win64; x64) AppleWebKit/537.36 (KHTML, like Gecko) Chrome/89.0.4389.90 Safari/537.36" etag="AB8DuPPwCQPH14XihEgk" version="14.4.9" type="github">
  <diagram name="Page-1" id="5348f1db-0dfa-24cf-5d06-2057accb5106">
    <mxGraphModel dx="1422" dy="794" grid="1" gridSize="10" guides="1" tooltips="1" connect="1" arrows="1" fold="1" page="1" pageScale="1.5" pageWidth="826" pageHeight="1169" background="#ffffff" math="0" shadow="0">
      <root>
        <mxCell id="0" style=";html=1;" />
        <mxCell id="1" style=";html=1;" parent="0" />
        <mxCell id="TfYHMZdPJaH0tN1C7_BG-54" value="" style="html=1;shadow=0;dashed=0;shape=mxgraph.bootstrap.rrect;rSize=5;strokeColor=none;html=1;whiteSpace=wrap;fillColor=#6C767D;fontColor=#ffffff;" vertex="1" parent="1">
          <mxGeometry x="20" y="160" width="90" height="180" as="geometry" />
        </mxCell>
        <mxCell id="TfYHMZdPJaH0tN1C7_BG-55" value="&lt;font color=&quot;#000000&quot;&gt;资源管理&amp;nbsp;&lt;/font&gt;" style="strokeColor=#6c8ebf;html=1;shadow=1;dashed=0;shape=mxgraph.bootstrap.topButton;rSize=5;perimeter=none;whiteSpace=wrap;resizeWidth=1;labelBackgroundColor=none;fontColor=#FFFF00;labelBorderColor=none;sketch=0;fillColor=#7D7D7D;gradientColor=#ffffff;" vertex="1" parent="TfYHMZdPJaH0tN1C7_BG-54">
          <mxGeometry width="90" height="30" relative="1" as="geometry" />
        </mxCell>
        <mxCell id="TfYHMZdPJaH0tN1C7_BG-56" value="交易申请" style="strokeColor=inherit;fillColor=inherit;gradientColor=inherit;fontColor=inherit;html=1;shadow=0;dashed=0;perimeter=none;whiteSpace=wrap;resizeWidth=1;" vertex="1" parent="TfYHMZdPJaH0tN1C7_BG-54">
          <mxGeometry width="90" height="30" relative="1" as="geometry">
            <mxPoint y="30" as="offset" />
          </mxGeometry>
        </mxCell>
        <mxCell id="TfYHMZdPJaH0tN1C7_BG-57" value="订单管理" style="strokeColor=inherit;fillColor=inherit;gradientColor=inherit;fontColor=inherit;html=1;shadow=0;dashed=0;perimeter=none;whiteSpace=wrap;resizeWidth=1;" vertex="1" parent="TfYHMZdPJaH0tN1C7_BG-54">
          <mxGeometry width="90" height="30" relative="1" as="geometry">
            <mxPoint y="60" as="offset" />
          </mxGeometry>
        </mxCell>
        <mxCell id="TfYHMZdPJaH0tN1C7_BG-59" value="" style="strokeColor=inherit;fillColor=inherit;gradientColor=inherit;fontColor=inherit;html=1;shadow=0;dashed=0;perimeter=none;whiteSpace=wrap;resizeWidth=1;align=left;spacing=10;" vertex="1" parent="TfYHMZdPJaH0tN1C7_BG-54">
          <mxGeometry width="90" height="30" relative="1" as="geometry">
            <mxPoint y="120" as="offset" />
          </mxGeometry>
        </mxCell>
        <mxCell id="TfYHMZdPJaH0tN1C7_BG-66" value="实例ID/名称" style="rounded=0;whiteSpace=wrap;html=1;arcSize=50;strokeColor=none;strokeWidth=1;fontColor=#000000;whiteSpace=wrap;align=left;verticalAlign=middle;spacingLeft=0;fontStyle=1;fontSize=14;spacing=10;fillColor=#DFE0E0;" vertex="1" parent="1">
          <mxGeometry x="110" y="230" width="130" height="30" as="geometry" />
        </mxCell>
        <mxCell id="TfYHMZdPJaH0tN1C7_BG-69" value="用途" style="rounded=0;whiteSpace=wrap;html=1;arcSize=50;strokeColor=none;strokeWidth=1;fontColor=#000000;whiteSpace=wrap;align=left;verticalAlign=middle;spacingLeft=0;fontStyle=1;fontSize=14;spacing=10;fillColor=#DFE0E0;" vertex="1" parent="1">
          <mxGeometry x="720" y="230" width="100" height="30" as="geometry" />
        </mxCell>
        <mxCell id="TfYHMZdPJaH0tN1C7_BG-70" value="创建时间" style="rounded=0;whiteSpace=wrap;html=1;arcSize=50;strokeColor=none;strokeWidth=1;fontColor=#000000;whiteSpace=wrap;align=left;verticalAlign=middle;spacingLeft=0;fontStyle=1;fontSize=14;spacing=10;fillColor=#DFE0E0;" vertex="1" parent="1">
          <mxGeometry x="240" y="230" width="130" height="30" as="geometry" />
        </mxCell>
        <mxCell id="TfYHMZdPJaH0tN1C7_BG-71" value="产品类型" style="rounded=0;whiteSpace=wrap;html=1;arcSize=50;strokeColor=none;strokeWidth=1;fontColor=#000000;whiteSpace=wrap;align=left;verticalAlign=middle;spacingLeft=0;fontStyle=1;fontSize=14;spacing=10;fillColor=#DFE0E0;" vertex="1" parent="1">
          <mxGeometry x="618" y="230" width="102" height="30" as="geometry" />
        </mxCell>
        <mxCell id="TfYHMZdPJaH0tN1C7_BG-72" value="服务商" style="rounded=0;whiteSpace=wrap;html=1;arcSize=50;strokeColor=none;strokeWidth=1;fontColor=#000000;whiteSpace=wrap;align=left;verticalAlign=middle;spacingLeft=0;fontStyle=1;fontSize=14;spacing=10;fillColor=#DFE0E0;" vertex="1" parent="1">
          <mxGeometry x="509" y="230" width="110" height="30" as="geometry" />
        </mxCell>
        <mxCell id="TfYHMZdPJaH0tN1C7_BG-73" value="到期时间" style="rounded=0;whiteSpace=wrap;html=1;arcSize=50;strokeColor=none;strokeWidth=1;fontColor=#000000;whiteSpace=wrap;align=left;verticalAlign=middle;spacingLeft=0;fontStyle=1;fontSize=14;spacing=10;fillColor=#DFE0E0;" vertex="1" parent="1">
          <mxGeometry x="369" y="230" width="140" height="30" as="geometry" />
        </mxCell>
        <mxCell id="TfYHMZdPJaH0tN1C7_BG-74" value="数据来源" style="rounded=0;whiteSpace=wrap;html=1;arcSize=50;strokeColor=none;strokeWidth=1;fontColor=#000000;whiteSpace=wrap;align=left;verticalAlign=middle;spacingLeft=0;fontStyle=1;fontSize=14;spacing=10;fillColor=#DFE0E0;" vertex="1" parent="1">
          <mxGeometry x="820" y="230" width="110" height="30" as="geometry" />
        </mxCell>
        <mxCell id="TfYHMZdPJaH0tN1C7_BG-103" value="申请交易" style="rounded=0;whiteSpace=wrap;html=1;arcSize=50;strokeColor=none;strokeWidth=1;fontColor=#000000;whiteSpace=wrap;align=center;verticalAlign=middle;spacingLeft=0;fontStyle=1;fontSize=14;spacing=10;fillColor=#DFE0E0;" vertex="1" parent="1">
          <mxGeometry x="920" y="230" width="130" height="30" as="geometry" />
        </mxCell>
        <mxCell id="TfYHMZdPJaH0tN1C7_BG-107" value="" style="group" vertex="1" connectable="0" parent="1">
          <mxGeometry x="110" y="260" width="1040" height="90" as="geometry" />
        </mxCell>
        <mxCell id="TfYHMZdPJaH0tN1C7_BG-94" value="" style="rounded=0;whiteSpace=wrap;html=1;shadow=0;dashed=0;sketch=0;strokeColor=#CED4DA;strokeWidth=1;fillColor=#FFFFFF;fontSize=14;fontColor=#505050;align=left;" vertex="1" parent="TfYHMZdPJaH0tN1C7_BG-107">
          <mxGeometry width="1040" height="90" as="geometry" />
        </mxCell>
        <mxCell id="TfYHMZdPJaH0tN1C7_BG-96" value="rm-8vbxl55y4r9" style="text;strokeColor=none;fillColor=none;align=center;verticalAlign=middle;whiteSpace=wrap;rounded=0;shadow=0;dashed=0;sketch=0;fontSize=14;fontColor=#505050;" vertex="1" parent="TfYHMZdPJaH0tN1C7_BG-107">
          <mxGeometry y="22.5" width="110" height="45" as="geometry" />
        </mxCell>
        <mxCell id="TfYHMZdPJaH0tN1C7_BG-97" value="2019-03-07 09:12:00" style="text;strokeColor=none;fillColor=none;align=center;verticalAlign=middle;whiteSpace=wrap;rounded=0;shadow=0;dashed=0;sketch=0;fontSize=12;fontColor=#505050;spacing=2;textOpacity=90;" vertex="1" parent="TfYHMZdPJaH0tN1C7_BG-107">
          <mxGeometry x="90" y="22.5" width="160" height="45" as="geometry" />
        </mxCell>
        <mxCell id="TfYHMZdPJaH0tN1C7_BG-98" value="2022-03-07 09:12:00" style="text;strokeColor=none;fillColor=none;align=center;verticalAlign=middle;whiteSpace=wrap;rounded=0;shadow=0;dashed=0;sketch=0;fontSize=12;fontColor=#505050;spacing=2;textOpacity=90;" vertex="1" parent="TfYHMZdPJaH0tN1C7_BG-107">
          <mxGeometry x="220" y="22.5" width="160" height="45" as="geometry" />
        </mxCell>
        <mxCell id="TfYHMZdPJaH0tN1C7_BG-99" value="阿里云" style="text;strokeColor=none;fillColor=none;align=center;verticalAlign=middle;whiteSpace=wrap;rounded=0;shadow=0;dashed=0;sketch=0;fontSize=12;fontColor=#505050;spacing=2;textOpacity=90;" vertex="1" parent="TfYHMZdPJaH0tN1C7_BG-107">
          <mxGeometry x="399" y="22.5" width="60" height="45" as="geometry" />
        </mxCell>
        <mxCell id="TfYHMZdPJaH0tN1C7_BG-100" value="ECS" style="text;strokeColor=none;fillColor=none;align=center;verticalAlign=middle;whiteSpace=wrap;rounded=0;shadow=0;dashed=0;sketch=0;fontSize=12;fontColor=#505050;spacing=2;textOpacity=90;" vertex="1" parent="TfYHMZdPJaH0tN1C7_BG-107">
          <mxGeometry x="508" y="22.5" width="60" height="45" as="geometry" />
        </mxCell>
        <mxCell id="TfYHMZdPJaH0tN1C7_BG-101" value="wsgjp_ecs_web01" style="text;strokeColor=none;fillColor=none;align=center;verticalAlign=middle;whiteSpace=wrap;rounded=0;shadow=0;dashed=0;sketch=0;fontSize=12;fontColor=#505050;spacing=2;textOpacity=90;" vertex="1" parent="TfYHMZdPJaH0tN1C7_BG-107">
          <mxGeometry x="590" y="22.5" width="100" height="45" as="geometry" />
        </mxCell>
        <mxCell id="TfYHMZdPJaH0tN1C7_BG-102" value="自动同步" style="text;strokeColor=none;fillColor=none;align=center;verticalAlign=middle;whiteSpace=wrap;rounded=0;shadow=0;dashed=0;sketch=0;fontSize=12;fontColor=#505050;spacing=2;textOpacity=90;" vertex="1" parent="TfYHMZdPJaH0tN1C7_BG-107">
          <mxGeometry x="720" y="22.5" width="60" height="45" as="geometry" />
        </mxCell>
        <mxCell id="TfYHMZdPJaH0tN1C7_BG-104" value="续费" style="rounded=1;whiteSpace=wrap;html=1;arcSize=50;strokeColor=none;strokeWidth=1;fillColor=#0085FC;fontColor=#FFFFFF;whiteSpace=wrap;align=center;verticalAlign=middle;spacingLeft=0;fontStyle=1;fontSize=12;spacing=10;shadow=0;dashed=0;sketch=0;" vertex="1" parent="TfYHMZdPJaH0tN1C7_BG-107">
          <mxGeometry x="850" y="10.29" width="60" height="19.71" as="geometry" />
        </mxCell>
        <mxCell id="TfYHMZdPJaH0tN1C7_BG-105" value="升级" style="rounded=1;whiteSpace=wrap;html=1;arcSize=50;strokeColor=none;strokeWidth=1;fillColor=#0085FC;fontColor=#FFFFFF;whiteSpace=wrap;align=center;verticalAlign=middle;spacingLeft=0;fontStyle=1;fontSize=12;spacing=10;shadow=0;dashed=0;sketch=0;" vertex="1" parent="TfYHMZdPJaH0tN1C7_BG-107">
          <mxGeometry x="850" y="35.9" width="60" height="18.21" as="geometry" />
        </mxCell>
        <mxCell id="TfYHMZdPJaH0tN1C7_BG-106" value="新购" style="rounded=1;whiteSpace=wrap;html=1;arcSize=50;strokeColor=none;strokeWidth=1;fillColor=#0085FC;fontColor=#FFFFFF;whiteSpace=wrap;align=center;verticalAlign=middle;spacingLeft=0;fontStyle=1;fontSize=12;spacing=10;shadow=0;dashed=0;sketch=0;" vertex="1" parent="TfYHMZdPJaH0tN1C7_BG-107">
          <mxGeometry x="850" y="60" width="60" height="17.5" as="geometry" />
        </mxCell>
        <mxCell id="TfYHMZdPJaH0tN1C7_BG-177" value="编辑" style="rounded=1;whiteSpace=wrap;html=1;arcSize=50;strokeColor=none;strokeWidth=1;fillColor=#0085FC;fontColor=#FFFFFF;whiteSpace=wrap;align=center;verticalAlign=middle;spacingLeft=0;fontStyle=1;fontSize=12;spacing=10;shadow=0;dashed=0;sketch=0;" vertex="1" parent="TfYHMZdPJaH0tN1C7_BG-107">
          <mxGeometry x="960" y="22.500000000000018" width="60" height="19.71" as="geometry" />
        </mxCell>
        <mxCell id="TfYHMZdPJaH0tN1C7_BG-178" value="删除" style="rounded=1;whiteSpace=wrap;html=1;arcSize=50;strokeColor=none;strokeWidth=1;fillColor=#0085FC;fontColor=#FFFFFF;whiteSpace=wrap;align=center;verticalAlign=middle;spacingLeft=0;fontStyle=1;fontSize=12;spacing=10;shadow=0;dashed=0;sketch=0;" vertex="1" parent="TfYHMZdPJaH0tN1C7_BG-107">
          <mxGeometry x="960" y="54.10000000000002" width="60" height="19.71" as="geometry" />
        </mxCell>
        <mxCell id="TfYHMZdPJaH0tN1C7_BG-121" value="" style="html=1;shadow=0;dashed=0;shape=mxgraph.bootstrap.rrect;rSize=5;strokeColor=#DEE2E6;html=1;whiteSpace=wrap;fillColor=#ffffff;fontColor=#0085FC;rounded=0;sketch=0;align=center;" vertex="1" parent="1">
          <mxGeometry x="1075" y="600" width="75" height="25" as="geometry" />
        </mxCell>
        <mxCell id="TfYHMZdPJaH0tN1C7_BG-122" value="1" style="strokeColor=inherit;fillColor=inherit;gradientColor=inherit;html=1;shadow=0;dashed=0;shape=mxgraph.bootstrap.leftButton;rSize=5;perimeter=none;whiteSpace=wrap;resizeHeight=1;fillColor=#0085FC;strokeColor=none;fontColor=#ffffff;fontSize=12;" vertex="1" parent="TfYHMZdPJaH0tN1C7_BG-121">
          <mxGeometry width="25" height="25" relative="1" as="geometry" />
        </mxCell>
        <mxCell id="TfYHMZdPJaH0tN1C7_BG-123" value="2" style="strokeColor=inherit;fillColor=inherit;gradientColor=inherit;fontColor=inherit;html=1;shadow=0;dashed=0;perimeter=none;whiteSpace=wrap;resizeHeight=1;fontSize=12;" vertex="1" parent="TfYHMZdPJaH0tN1C7_BG-121">
          <mxGeometry width="25" height="25" relative="1" as="geometry">
            <mxPoint x="25" as="offset" />
          </mxGeometry>
        </mxCell>
        <mxCell id="TfYHMZdPJaH0tN1C7_BG-124" value="3" style="strokeColor=inherit;fillColor=inherit;gradientColor=inherit;fontColor=inherit;html=1;shadow=0;dashed=0;shape=mxgraph.bootstrap.rightButton;rSize=5;perimeter=none;whiteSpace=wrap;resizeHeight=1;fontSize=12;" vertex="1" parent="TfYHMZdPJaH0tN1C7_BG-121">
          <mxGeometry x="1" width="25" height="25" relative="1" as="geometry">
            <mxPoint x="-25" as="offset" />
          </mxGeometry>
        </mxCell>
        <mxCell id="TfYHMZdPJaH0tN1C7_BG-120" value="" style="whiteSpace=wrap;html=1;rounded=0;shadow=0;dashed=0;sketch=0;strokeColor=#CED4DA;strokeWidth=1;fillColor=#FFFFFF;fontSize=12;fontColor=#505050;align=center;" vertex="1" parent="TfYHMZdPJaH0tN1C7_BG-121">
          <mxGeometry x="-965" y="-160" width="1040" height="160" as="geometry" />
        </mxCell>
        <mxCell id="TfYHMZdPJaH0tN1C7_BG-169" value="" style="group" vertex="1" connectable="0" parent="1">
          <mxGeometry x="120" y="170" width="821" height="33" as="geometry" />
        </mxCell>
        <mxCell id="TfYHMZdPJaH0tN1C7_BG-152" value="2021-03-20 00:00:00 至 2021-03-26:00:00:00" style="html=1;shadow=0;dashed=0;shape=mxgraph.bootstrap.rrect;rSize=5;strokeColor=#505050;strokeWidth=1;fillColor=#ffffff;fontColor=#777777;whiteSpace=wrap;align=left;verticalAlign=middle;fontStyle=0;fontSize=12;spacingRight=0;spacing=17;rounded=0;sketch=0;" vertex="1" parent="TfYHMZdPJaH0tN1C7_BG-169">
          <mxGeometry x="70" y="3" width="290" height="30" as="geometry" />
        </mxCell>
        <mxCell id="TfYHMZdPJaH0tN1C7_BG-153" value="" style="shape=triangle;direction=south;fillColor=#495057;strokeColor=none;perimeter=none;" vertex="1" parent="TfYHMZdPJaH0tN1C7_BG-152">
          <mxGeometry x="1" y="0.5" width="10" height="5" relative="1" as="geometry">
            <mxPoint x="-17" y="-2.5" as="offset" />
          </mxGeometry>
        </mxCell>
        <mxCell id="TfYHMZdPJaH0tN1C7_BG-164" value="到期时间" style="text;html=1;strokeColor=none;fillColor=none;align=center;verticalAlign=middle;whiteSpace=wrap;rounded=0;shadow=0;dashed=0;sketch=0;fontSize=12;fontColor=#505050;" vertex="1" parent="TfYHMZdPJaH0tN1C7_BG-169">
          <mxGeometry y="13" width="80" height="20" as="geometry" />
        </mxCell>
        <mxCell id="TfYHMZdPJaH0tN1C7_BG-165" value="服务商" style="html=1;shadow=0;dashed=0;shape=mxgraph.bootstrap.rrect;rSize=5;strokeColor=#505050;strokeWidth=1;fillColor=#ffffff;fontColor=#777777;whiteSpace=wrap;align=left;verticalAlign=middle;fontStyle=0;fontSize=12;spacingRight=0;spacing=17;rounded=0;sketch=0;" vertex="1" parent="TfYHMZdPJaH0tN1C7_BG-169">
          <mxGeometry x="370" y="3" width="90" height="30" as="geometry" />
        </mxCell>
        <mxCell id="TfYHMZdPJaH0tN1C7_BG-166" value="" style="shape=triangle;direction=south;fillColor=#495057;strokeColor=none;perimeter=none;" vertex="1" parent="TfYHMZdPJaH0tN1C7_BG-165">
          <mxGeometry x="1" y="0.5" width="10" height="5" relative="1" as="geometry">
            <mxPoint x="-17" y="-2.5" as="offset" />
          </mxGeometry>
        </mxCell>
        <mxCell id="TfYHMZdPJaH0tN1C7_BG-167" value="产品类型" style="html=1;shadow=0;dashed=0;shape=mxgraph.bootstrap.rrect;rSize=5;strokeColor=#505050;strokeWidth=1;fillColor=#ffffff;fontColor=#777777;whiteSpace=wrap;align=left;verticalAlign=middle;fontStyle=0;fontSize=12;spacingRight=0;spacing=17;rounded=0;sketch=0;" vertex="1" parent="TfYHMZdPJaH0tN1C7_BG-169">
          <mxGeometry x="470" y="3" width="96.5" height="30" as="geometry" />
        </mxCell>
        <mxCell id="TfYHMZdPJaH0tN1C7_BG-168" value="" style="shape=triangle;direction=south;fillColor=#495057;strokeColor=none;perimeter=none;" vertex="1" parent="TfYHMZdPJaH0tN1C7_BG-167">
          <mxGeometry x="1" y="0.5" width="10" height="5" relative="1" as="geometry">
            <mxPoint x="-17" y="-2.5" as="offset" />
          </mxGeometry>
        </mxCell>
        <mxCell id="TfYHMZdPJaH0tN1C7_BG-173" value="实例ID/名称" style="html=1;shadow=0;dashed=0;shape=mxgraph.bootstrap.rrect;rSize=5;strokeColor=#505050;strokeWidth=1;fillColor=#ffffff;fontColor=#777777;whiteSpace=wrap;align=left;verticalAlign=middle;fontStyle=0;fontSize=12;spacingRight=0;spacing=17;rounded=0;sketch=0;" vertex="1" parent="TfYHMZdPJaH0tN1C7_BG-169">
          <mxGeometry x="580" y="3" width="140" height="30" as="geometry" />
        </mxCell>
        <mxCell id="TfYHMZdPJaH0tN1C7_BG-170" value="同步并查询" style="html=1;shadow=0;dashed=0;shape=mxgraph.bootstrap.rrect;rSize=5;strokeColor=none;strokeWidth=1;fillColor=#0085FC;fontColor=#FFFFFF;whiteSpace=wrap;align=center;verticalAlign=middle;spacingLeft=0;fontStyle=0;fontSize=14;spacing=5;rounded=0;sketch=0;" vertex="1" parent="1">
          <mxGeometry x="890" y="171.5" width="81" height="30" as="geometry" />
        </mxCell>
        <mxCell id="TfYHMZdPJaH0tN1C7_BG-172" value="手动新增" style="html=1;shadow=0;dashed=0;shape=mxgraph.bootstrap.rrect;rSize=5;strokeColor=none;strokeWidth=1;fillColor=#0085FC;fontColor=#FFFFFF;whiteSpace=wrap;align=center;verticalAlign=middle;spacingLeft=0;fontStyle=0;fontSize=14;spacing=5;rounded=0;sketch=0;" vertex="1" parent="1">
          <mxGeometry x="984.5" y="173" width="81" height="30" as="geometry" />
        </mxCell>
        <mxCell id="TfYHMZdPJaH0tN1C7_BG-175" value="编辑" style="rounded=0;whiteSpace=wrap;html=1;arcSize=50;strokeColor=none;strokeWidth=1;fontColor=#000000;whiteSpace=wrap;align=center;verticalAlign=middle;spacingLeft=0;fontStyle=1;fontSize=14;spacing=10;fillColor=#DFE0E0;" vertex="1" parent="1">
          <mxGeometry x="1050" y="230" width="100" height="30" as="geometry" />
        </mxCell>
        <mxCell id="TfYHMZdPJaH0tN1C7_BG-179" value="" style="group" vertex="1" connectable="0" parent="1">
          <mxGeometry x="110" y="350" width="1040" height="90" as="geometry" />
        </mxCell>
        <mxCell id="TfYHMZdPJaH0tN1C7_BG-180" value="" style="rounded=0;whiteSpace=wrap;html=1;shadow=0;dashed=0;sketch=0;strokeColor=#CED4DA;strokeWidth=1;fillColor=#FFFFFF;fontSize=14;fontColor=#505050;align=left;" vertex="1" parent="TfYHMZdPJaH0tN1C7_BG-179">
          <mxGeometry width="1040" height="90" as="geometry" />
        </mxCell>
        <mxCell id="TfYHMZdPJaH0tN1C7_BG-181" value="rm-8vbxl55y4r9" style="text;strokeColor=none;fillColor=none;align=center;verticalAlign=middle;whiteSpace=wrap;rounded=0;shadow=0;dashed=0;sketch=0;fontSize=14;fontColor=#505050;" vertex="1" parent="TfYHMZdPJaH0tN1C7_BG-179">
          <mxGeometry y="22.5" width="110" height="45" as="geometry" />
        </mxCell>
        <mxCell id="TfYHMZdPJaH0tN1C7_BG-182" value="2019-03-07 09:12:00" style="text;strokeColor=none;fillColor=none;align=center;verticalAlign=middle;whiteSpace=wrap;rounded=0;shadow=0;dashed=0;sketch=0;fontSize=12;fontColor=#505050;spacing=2;textOpacity=90;" vertex="1" parent="TfYHMZdPJaH0tN1C7_BG-179">
          <mxGeometry x="90" y="22.5" width="160" height="45" as="geometry" />
        </mxCell>
        <mxCell id="TfYHMZdPJaH0tN1C7_BG-183" value="2022-03-07 09:12:00" style="text;strokeColor=none;fillColor=none;align=center;verticalAlign=middle;whiteSpace=wrap;rounded=0;shadow=0;dashed=0;sketch=0;fontSize=12;fontColor=#505050;spacing=2;textOpacity=90;" vertex="1" parent="TfYHMZdPJaH0tN1C7_BG-179">
          <mxGeometry x="220" y="22.5" width="160" height="45" as="geometry" />
        </mxCell>
        <mxCell id="TfYHMZdPJaH0tN1C7_BG-184" value="阿里云" style="text;strokeColor=none;fillColor=none;align=center;verticalAlign=middle;whiteSpace=wrap;rounded=0;shadow=0;dashed=0;sketch=0;fontSize=12;fontColor=#505050;spacing=2;textOpacity=90;" vertex="1" parent="TfYHMZdPJaH0tN1C7_BG-179">
          <mxGeometry x="399" y="22.5" width="60" height="45" as="geometry" />
        </mxCell>
        <mxCell id="TfYHMZdPJaH0tN1C7_BG-185" value="RDS" style="text;strokeColor=none;fillColor=none;align=center;verticalAlign=middle;whiteSpace=wrap;rounded=0;shadow=0;dashed=0;sketch=0;fontSize=12;fontColor=#505050;spacing=2;textOpacity=90;" vertex="1" parent="TfYHMZdPJaH0tN1C7_BG-179">
          <mxGeometry x="508" y="22.5" width="60" height="45" as="geometry" />
        </mxCell>
        <mxCell id="TfYHMZdPJaH0tN1C7_BG-186" value="wsgjp_rds_order01" style="text;strokeColor=none;fillColor=none;align=center;verticalAlign=middle;whiteSpace=wrap;rounded=0;shadow=0;dashed=0;sketch=0;fontSize=12;fontColor=#505050;spacing=2;textOpacity=90;" vertex="1" parent="TfYHMZdPJaH0tN1C7_BG-179">
          <mxGeometry x="610" y="24.86" width="60" height="45" as="geometry" />
        </mxCell>
        <mxCell id="TfYHMZdPJaH0tN1C7_BG-187" value="手动添加" style="text;strokeColor=none;fillColor=none;align=center;verticalAlign=middle;whiteSpace=wrap;rounded=0;shadow=0;dashed=0;sketch=0;fontSize=12;fontColor=#505050;spacing=2;textOpacity=90;" vertex="1" parent="TfYHMZdPJaH0tN1C7_BG-179">
          <mxGeometry x="720" y="22.5" width="60" height="45" as="geometry" />
        </mxCell>
        <mxCell id="TfYHMZdPJaH0tN1C7_BG-188" value="续费" style="rounded=1;whiteSpace=wrap;html=1;arcSize=50;strokeColor=none;strokeWidth=1;fillColor=#0085FC;fontColor=#FFFFFF;whiteSpace=wrap;align=center;verticalAlign=middle;spacingLeft=0;fontStyle=1;fontSize=12;spacing=10;shadow=0;dashed=0;sketch=0;" vertex="1" parent="TfYHMZdPJaH0tN1C7_BG-179">
          <mxGeometry x="850" y="10.29" width="60" height="19.71" as="geometry" />
        </mxCell>
        <mxCell id="TfYHMZdPJaH0tN1C7_BG-189" value="升级" style="rounded=1;whiteSpace=wrap;html=1;arcSize=50;strokeColor=none;strokeWidth=1;fillColor=#0085FC;fontColor=#FFFFFF;whiteSpace=wrap;align=center;verticalAlign=middle;spacingLeft=0;fontStyle=1;fontSize=12;spacing=10;shadow=0;dashed=0;sketch=0;" vertex="1" parent="TfYHMZdPJaH0tN1C7_BG-179">
          <mxGeometry x="850" y="35.9" width="60" height="18.21" as="geometry" />
        </mxCell>
        <mxCell id="TfYHMZdPJaH0tN1C7_BG-190" value="新购" style="rounded=1;whiteSpace=wrap;html=1;arcSize=50;strokeColor=none;strokeWidth=1;fillColor=#0085FC;fontColor=#FFFFFF;whiteSpace=wrap;align=center;verticalAlign=middle;spacingLeft=0;fontStyle=1;fontSize=12;spacing=10;shadow=0;dashed=0;sketch=0;" vertex="1" parent="TfYHMZdPJaH0tN1C7_BG-179">
          <mxGeometry x="850" y="60" width="60" height="17.5" as="geometry" />
        </mxCell>
        <mxCell id="TfYHMZdPJaH0tN1C7_BG-191" value="编辑" style="rounded=1;whiteSpace=wrap;html=1;arcSize=50;strokeColor=none;strokeWidth=1;fillColor=#0085FC;fontColor=#FFFFFF;whiteSpace=wrap;align=center;verticalAlign=middle;spacingLeft=0;fontStyle=1;fontSize=12;spacing=10;shadow=0;dashed=0;sketch=0;" vertex="1" parent="TfYHMZdPJaH0tN1C7_BG-179">
          <mxGeometry x="960" y="20.15000000000002" width="60" height="19.71" as="geometry" />
        </mxCell>
        <mxCell id="TfYHMZdPJaH0tN1C7_BG-192" value="删除" style="rounded=1;whiteSpace=wrap;html=1;arcSize=50;strokeColor=none;strokeWidth=1;fillColor=#0085FC;fontColor=#FFFFFF;whiteSpace=wrap;align=center;verticalAlign=middle;spacingLeft=0;fontStyle=1;fontSize=12;spacing=10;shadow=0;dashed=0;sketch=0;" vertex="1" parent="TfYHMZdPJaH0tN1C7_BG-179">
          <mxGeometry x="960" y="50.15000000000002" width="60" height="19.71" as="geometry" />
        </mxCell>
      </root>
    </mxGraphModel>
  </diagram>
</mxfile>
